<?xml version="1.0" encoding="UTF-8"?>
<svg width="20px" height="20px" viewBox="0 0 20 20" version="1.1" xmlns="http://www.w3.org/2000/svg" xmlns:xlink="http://www.w3.org/1999/xlink">
    <title>1</title>
    <g id="页面-1" stroke="none" stroke-width="1" fill="none" fill-rule="evenodd">
        <g id="概览" transform="translate(0.000000, 1.000000)" fill="#4992FF" fill-rule="nonzero">
            <path d="M10,13.8750518 C9.58578644,13.8750518 9.25,13.5392653 9.25,13.1250518 L9.25,4.68755175 C9.25,4.27333819 9.58578644,3.93755175 10,3.93755175 C10.4142136,3.93755175 10.75,4.27333819 10.75,4.68755175 L10.75,13.1250518 C10.75,13.5392653 10.4142136,13.8750518 10,13.8750518 Z M14.475,13.8750518 C14.0607864,13.8750518 13.725,13.5392653 13.725,13.1250518 L13.725,8.53755175 C13.725,8.12333819 14.0607864,7.78755175 14.475,7.78755175 C14.8892136,7.78755175 15.225,8.12333819 15.225,8.53755175 L15.225,13.1250518 C15.225,13.5392653 14.8892136,13.8750518 14.475,13.8750518 Z M5.525,13.8750518 C5.11078644,13.8750518 4.775,13.5392653 4.775,13.1250518 L4.775,9.50005175 C4.84074741,9.1444555 5.15087669,8.88641065 5.5125,8.88641065 C5.87412331,8.88641065 6.18425259,9.1444555 6.25000012,9.50005175 L6.25000012,13.1250518 C6.25022486,13.5296954 5.92941887,13.8615637 5.525,13.8750518 Z M5.525,6.97505187 C5.11078644,6.97505187 4.775,6.63926531 4.775,6.22505175 L4.775,4.68755175 C4.775,4.27333819 5.11078644,3.93755175 5.525,3.93755175 C5.93921356,3.93755175 6.275,4.27333819 6.275,4.68755175 L6.275,6.25005175 C6.26151194,6.65447062 5.92964367,6.97527661 5.525,6.97505187 L5.525,6.97505187 Z" id="形状"></path>
            <path d="M16.9875,1.50005175 C17.8159271,1.50005175 18.4875,2.17162463 18.4875,3.00005175 L18.4875,14.5000518 C18.4875,15.3284789 17.8159271,16.0000518 16.9875,16.0000518 L3.0125,16.0000518 C2.18407288,16.0000518 1.5125,15.3284789 1.5125,14.5000518 L1.5125,3.00005175 C1.5125,2.17162463 2.18407288,1.50005175 3.0125,1.50005175 L16.9875,1.50005175 M16.9875,2.56732418e-05 L3.0125,2.56732418e-05 C2.21468695,-0.0032724979 1.44841001,0.311329889 0.883094461,0.874299731 C0.317778911,1.43726957 0,2.20223178 0,3.00005175 L0,14.5000518 C0,15.2978717 0.317778911,16.0628339 0.883094461,16.6258038 C1.44841001,17.1887736 2.21468695,17.503376 3.0125,17.5000778 L16.9875,17.5000778 C17.7853131,17.503376 18.55159,17.1887736 19.1169055,16.6258038 C19.6822211,16.0628339 20,15.2978717 20,14.5000518 L20,3.00005175 C20,2.20223178 19.6822211,1.43726957 19.1169055,0.874299731 C18.55159,0.311329889 17.7853131,-0.0032724979 16.9875,2.56732418e-05 Z" id="形状"></path>
        </g>
    </g>
</svg>