<?xml version="1.0" encoding="UTF-8"?>
<svg width="20px" height="20px" viewBox="0 0 20 20" version="1.1" xmlns="http://www.w3.org/2000/svg" xmlns:xlink="http://www.w3.org/1999/xlink">
    <title>3</title>
    <g id="页面-1" stroke="none" stroke-width="1" fill="none" fill-rule="evenodd">
        <g id="我的资产" transform="translate(0.000000, -0.000000)" fill="#4992FF" fill-rule="nonzero">
            <path d="M18.8371489,14.7111944 L13.720703,14.7111944 C12.0537271,14.7111944 10.6974386,13.3549058 10.6974386,11.6879299 C10.6974386,10.020954 12.0537271,8.66466547 13.720703,8.66466547 L18.8369015,8.66466547 C19.2222923,8.66466547 19.5344639,8.97683695 19.5344639,9.36222772 C19.5344639,9.74761849 19.2222923,10.05979 18.8369015,10.05979 L13.720703,10.05979 C12.8232719,10.05979 12.0928104,10.7902514 12.0928104,11.6876826 C12.0928104,12.5851137 12.8232719,13.3155751 13.720703,13.3155751 L18.8369015,13.3155751 C19.2222923,13.3155751 19.5344639,13.6277466 19.5344639,14.0131374 C19.5347111,14.3990229 19.2225397,14.7111944 18.8371489,14.7111944 L18.8371489,14.7111944 Z M17.4702237,5.0459995 C17.1852621,5.0459995 16.9176159,4.8698774 16.8144658,4.5868947 L15.7090028,1.54928324 C15.6803087,1.4703746 15.6214364,1.43327023 15.5887846,1.41793375 C15.5561327,1.40259728 15.4895922,1.38058201 15.4109309,1.41026551 L5.56639828,4.99355865 C5.20425958,5.12466077 4.8037797,4.93864418 4.67193549,4.57650548 C4.54009128,4.21436678 4.72684996,3.81413426 5.08898866,3.68204269 L14.9335213,0.098749552 C15.3424115,-0.0496679464 15.7846957,-0.0301263091 16.1782494,0.152921939 C16.5722979,0.336712275 16.8713591,0.662983409 17.020024,1.07162625 L18.125487,4.10923772 C18.2573312,4.47137642 18.0705725,4.87160894 17.7084338,5.00370051 C17.6321269,5.03166603 17.5514937,5.0459995 17.4702237,5.0459995 Z" id="形状"></path>
            <path d="M18.37186,19.3623514 L1.6278926,19.3623514 C0.730461455,19.3623514 0,18.6318899 0,17.7344588 L0,5.64164839 C0,4.74421725 0.730461455,4.0137558 1.6278926,4.0137558 L18.3721074,4.0137558 C19.2695385,4.0137558 20,4.74421725 20,5.64164839 L20,17.7347062 C19.9997526,18.6321373 19.2695385,19.3623514 18.37186,19.3623514 L18.37186,19.3623514 Z M1.6278926,5.40888028 C1.49951146,5.40888028 1.39537185,5.51301989 1.39537185,5.64140103 L1.39537185,17.7344588 C1.39537185,17.8628399 1.49951146,17.9669795 1.6278926,17.9669795 L18.3721074,17.9669795 C18.5004885,17.9669795 18.6046282,17.8628399 18.6046282,17.7344588 L18.6046282,5.64164839 C18.6046282,5.51326726 18.5004885,5.40912765 18.3721074,5.40912765 L1.6278926,5.40912765 L1.6278926,5.40888028 Z" id="形状"></path>
        </g>
    </g>
</svg>