<?xml version="1.0" encoding="UTF-8"?>
<svg width="20px" height="20px" viewBox="0 0 20 20" version="1.1" xmlns="http://www.w3.org/2000/svg" xmlns:xlink="http://www.w3.org/1999/xlink">
    <title>5</title>
    <g id="页面-1" stroke="none" stroke-width="1" fill="none" fill-rule="evenodd">
        <g id="动态备份" transform="translate(-0.000000, 0.000000)" fill="#4992FF" fill-rule="nonzero">
            <path d="M11.9512412,20 C11.7490738,20 11.5531269,19.9098022 11.4224957,19.7511786 L9.21109565,17.0639076 L9.21109565,18.8336498 C9.21109565,19.2099921 8.90628946,19.5179086 8.52683684,19.5179086 C8.14738423,19.5179086 7.84257803,19.2099921 7.84257803,18.8336498 L7.84257803,15.1542035 C7.84257803,14.8649486 8.02297354,14.6067965 8.29667706,14.5103782 C8.56727032,14.4139599 8.87207651,14.4948268 9.05558229,14.7187661 L11.7428533,17.9845468 L18.1002397,1.90135444 L1.90507771,8.30228459 L5.41034898,11.8044456 L11.8081689,7.24168344 C12.1160853,7.02396472 12.542192,7.09239061 12.7630209,7.40030707 C12.9807396,7.70822354 12.9092035,8.13433016 12.6043973,8.35515914 L5.73381678,13.2569404 C5.46322353,13.4528873 5.08999145,13.4186743 4.85361113,13.182294 L0.200651216,8.53244438 C0.0389173147,8.37071048 -0.0326188337,8.13433016 0.0140351761,7.91039091 C0.060689186,7.6833414 0.219312819,7.49672536 0.433921265,7.41274814 L19.0675328,0.0476351165 C19.3194645,-0.0518934379 19.6087193,0.00720164127 19.8015559,0.200038215 C19.9943925,0.392874789 20.0534875,0.682129651 19.953959,0.934061304 L12.5857357,19.5676728 C12.4955379,19.7916121 12.2964808,19.953346 12.0569903,19.9906692 C12.0227773,19.9968897 11.9854541,20 11.9512412,20 Z" id="路径"></path>
        </g>
    </g>
</svg>