<?xml version="1.0" encoding="UTF-8"?>
<svg width="20px" height="20px" viewBox="0 0 20 20" version="1.1" xmlns="http://www.w3.org/2000/svg" xmlns:xlink="http://www.w3.org/1999/xlink">
    <title>7</title>
    <g id="页面-1" stroke="none" stroke-width="1" fill="none" fill-rule="evenodd">
        <g id="管理流程备份" transform="translate(0.000000, 1.000000)" fill="#4992FF" fill-rule="nonzero">
            <path d="M9.33333334,1.33333333 C8.59695368,1.33333333 8.00000001,1.930287 8.00000001,2.66666667 L8.00000001,4 C8.00000001,4.73637967 8.59695368,5.33333333 9.33333334,5.33333333 L10.6666667,5.33333333 C11.4030463,5.33333333 12,4.73637967 12,4 L12,2.66666667 C12,1.930287 11.4030463,1.33333333 10.6666667,1.33333333 L9.33333334,1.33333333 L9.33333334,1.33333333 Z M9.33333334,0 L10.6666667,0 C12.139426,0 13.3333333,1.19390734 13.3333333,2.66666667 L13.3333333,4 C13.3333333,5.47275934 12.139426,6.66666667 10.6666667,6.66666667 L9.33333334,6.66666667 C7.86057401,6.66666667 6.66666667,5.47275934 6.66666667,4 L6.66666667,2.66666667 C6.66666667,1.19390734 7.86057401,0 9.33333334,0 L9.33333334,0 Z M2.66666667,13.6493333 C1.930287,13.6493333 1.33333333,14.246287 1.33333333,14.9826667 L1.33333333,16.316 C1.33333333,17.0523796 1.930287,17.6493333 2.66666667,17.6493333 L4,17.6493333 C4.73637967,17.6493333 5.33333333,17.0523796 5.33333333,16.316 L5.33333333,14.9826667 C5.33333333,14.246287 4.73637967,13.6493333 4,13.6493333 L2.66666667,13.6493333 L2.66666667,13.6493333 Z M2.66666667,12.316 L4,12.316 C5.47275934,12.316 6.66666667,13.5099073 6.66666667,14.9826667 L6.66666667,16.316 C6.66666667,17.7887593 5.47275934,18.9826666 4,18.9826666 L2.66666667,18.9826666 C1.19390734,18.9826666 0,17.7887593 0,16.316 L0,14.9826667 C0,13.5099073 1.19390734,12.316 2.66666667,12.316 L2.66666667,12.316 Z M16,13.6493333 C15.2636203,13.6493333 14.6666667,14.246287 14.6666667,14.9826667 L14.6666667,16.316 C14.6666667,17.0523796 15.2636203,17.6493333 16,17.6493333 L17.3333333,17.6493333 C18.069713,17.6493333 18.6666667,17.0523796 18.6666667,16.316 L18.6666667,14.9826667 C18.6666667,14.246287 18.069713,13.6493333 17.3333333,13.6493333 L16,13.6493333 L16,13.6493333 Z M16,12.316 L17.3333333,12.316 C18.8060927,12.316 20,13.5099073 20,14.9826667 L20,16.316 C20,17.7887593 18.8060927,18.9826666 17.3333333,18.9826666 L16,18.9826666 C14.5272407,18.9826666 13.3333333,17.7887593 13.3333333,16.316 L13.3333333,14.9826667 C13.3333333,13.5099073 14.5272407,12.316 16,12.316 L16,12.316 Z" id="形状"></path>
            <path d="M4,13.1986667 L2.66666667,13.1986667 L2.66666667,10.9826667 C2.66666667,9.87809717 3.56209717,8.98266667 4.66666667,8.98266667 L15.3333333,8.98266667 C16.4379028,8.98266667 17.3333333,9.87809717 17.3333333,10.9826667 L17.3333333,13.1986667 L16,13.1986667 L16,10.9826667 C16,10.8058557 15.9297621,10.6362864 15.8047379,10.5112621 C15.6797136,10.3862379 15.5101443,10.316 15.3333333,10.316 L4.66666667,10.316 C4.48985567,10.316 4.32028639,10.3862379 4.19526214,10.5112621 C4.07023789,10.6362864 4,10.8058557 4,10.9826667 L4,13.1986667 L4,13.1986667 Z" id="路径"></path>
            <polygon id="路径" points="10.6666667 9.64933333 9.33333334 9.64933333 9.33333334 6.1 10.6666667 6.1"></polygon>
        </g>
    </g>
</svg>