<?xml version="1.0" encoding="UTF-8"?>
<svg width="20px" height="20px" viewBox="0 0 20 20" version="1.1" xmlns="http://www.w3.org/2000/svg" xmlns:xlink="http://www.w3.org/1999/xlink">
    <title>9</title>
    <g id="页面-1" stroke="none" stroke-width="1" fill="none" fill-rule="evenodd">
        <g id="书籍" transform="translate(1.000000, 0.000000)" fill="#4992FF" fill-rule="nonzero">
            <path d="M14.9361466,3.94526783e-16 L2.44308717,3.94526783e-16 C1.09938923,3.94526783e-16 7.89053566e-16,1.09938923 7.89053566e-16,2.44308717 L7.89053566e-16,17.5569128 C7.89053566e-16,18.9006108 1.09938923,20 2.44308717,20 L14.9361466,20 C16.2798445,20 17.3792338,18.9006108 17.3792338,17.5569128 L17.3792338,2.44308717 C17.3792338,1.09938923 16.2909495,3.94526783e-16 14.9361466,3.94526783e-16 Z M1.332593,17.5569128 L1.332593,2.44308717 C1.332593,1.83231538 1.83231538,1.332593 2.44308717,1.332593 L5.01943365,1.332593 L5.01943365,18.667407 L2.44308717,18.667407 C1.83231538,18.667407 1.332593,18.1676846 1.332593,17.5569128 Z M16.0466408,17.5569128 C16.0466408,18.1676846 15.5469184,18.667407 14.9361466,18.667407 L6.35202665,18.667407 L6.35202665,1.332593 L14.9361466,1.332593 C15.5469184,1.332593 16.0466408,1.83231538 16.0466408,2.44308717 L16.0466408,17.5569128 L16.0466408,17.5569128 Z" id="形状"></path>
        </g>
    </g>
</svg>