<svg width="24" height="24" viewBox="0 0 24 24" xmlns="http://www.w3.org/2000/svg"><g  fill-rule="nonzero"><path d="M21.68 16.349l-9.56 4.47-9.894-4.63c-.445-.182-.938.063-1.12.554-.181.49.014 1.055.442 1.28l10.239 4.785a.786.786 0 0 0 .683 0l9.888-4.624c.429-.226.623-.79.442-1.281-.181-.491-.674-.735-1.12-.554zM1.549 7.548l10.239 4.797a.786.786 0 0 0 .683 0l9.888-4.67c.329-.158.542-.52.542-.921 0-.402-.213-.764-.542-.921L12.12 1.075a.854.854 0 0 0-.702 0L1.554 5.673a.946.946 0 0 0-.481.56 1.107 1.107 0 0 0-.008.77c.09.247.264.443.483.545zm2.62-.887h.1-.1z"/><path d="M21.68 11.258l-9.56 4.47-9.894-4.624c-.445-.181-.938.063-1.12.554-.181.491.014 1.055.442 1.281l10.239 4.784a.786.786 0 0 0 .683 0l9.888-4.624c.429-.225.623-.79.442-1.28-.181-.492-.674-.736-1.12-.555v-.006z"/></g></svg>