<svg width="20" height="20" viewBox="0 0 20 20" xmlns="http://www.w3.org/2000/svg"><g fill-rule="nonzero"><path d="M16.177 1.561a1.775 1.775 0 0 1 1.776 1.783v11.683H4.467a.883.883 0 0 0-.628.26.89.89 0 0 0 .628 1.522h13.486a1.779 1.779 0 0 1-1.776 1.752H3.729a1.775 1.775 0 0 1-1.776-1.782V3.344c0-.985.794-1.783 1.776-1.783h12.448zM9.364 4.283h-2.53v8.097h2.64c2.984.098 4.427-1.276 4.33-4.122-.05-2.625-1.53-3.95-4.44-3.975z"/><path d="M9.355 5.811c1.75.024 2.651.85 2.703 2.477 0 1.75-.903 2.623-2.707 2.623H8.69v-5.1h.665z"/></g></svg>
