<svg width="24" height="24" viewBox="0 0 24 24" xmlns="http://www.w3.org/2000/svg"><g  fill-rule="nonzero"><path d="M2.172 2.041c.157-.03.317-.023.476-.024h16.788a1.427 1.427 0 0 1 1.396 1.105c.038.157.037.318.035.477-.397-.01-.795-.002-1.192-.005l-15.93.001a1.441 1.441 0 0 0-1.042.448 1.41 1.41 0 0 0-.388.965V16.5A1.433 1.433 0 0 1 1 15.154l-.001-11.8c.02-.23.085-.456.208-.653.208-.342.567-.59.964-.66z"/><path d="M3.47 4.71c.263-.252.627-.397.993-.395h17.002a1.436 1.436 0 0 1 1.432 1.331v11.802a1.433 1.433 0 0 1-1.409 1.353h-3.576l-1.204 2.069c-.11.178-.195.379-.358.52a1.03 1.03 0 0 1-1.569-.236l-1.37-2.353H4.462a1.438 1.438 0 0 1-1.065-.471 1.415 1.415 0 0 1-.367-.96V5.74c-.003-.384.16-.765.44-1.03M7.6 10.159a1.66 1.66 0 0 0-1.277.792 1.632 1.632 0 0 0 .392 2.127c.28.222.636.349.995.354A1.657 1.657 0 0 0 9.313 12.3a1.636 1.636 0 0 0-.662-1.877 1.665 1.665 0 0 0-1.052-.265m5.229 0a1.66 1.66 0 0 0-1.285.807 1.632 1.632 0 0 0 .482 2.172 1.659 1.659 0 0 0 1.91-.013c.283-.201.5-.494.608-.823a1.638 1.638 0 0 0 0-1.016 1.648 1.648 0 0 0-.664-.863 1.664 1.664 0 0 0-1.051-.264m5.228 0a1.66 1.66 0 0 0-1.265.776 1.63 1.63 0 0 0 .382 2.143 1.67 1.67 0 0 0 1.83.148 1.636 1.636 0 0 0 .09-2.812 1.664 1.664 0 0 0-1.037-.254z"/></g></svg>