<svg width="24" height="24" viewBox="0 0 24 24" xmlns="http://www.w3.org/2000/svg"><path d="M17.97 19c4.252 0 4.91 2.193 5.011 2.827l.014.083.005.084c0 .518-.491.945-1.117 1l-.136.006h-7.494c-.69 0-1.253-.451-1.253-1.003C13 18.992 17.97 19 17.97 19zm-8.912-6.272c1.345 0 2.198.842 2.198 2.199v5.864c0 1.354-1.166 2.199-2.198 2.199h-5.86C1.853 22.99 1 22.146 1 20.79v-5.688c0-1.355.853-2.374 2.198-2.374zm11.063 1.15a3 3 0 1 1-4.242 4.243 3 3 0 0 1 4.242-4.242zM20.78 1c1.346.001 2.198.844 2.198 2.199v5.864c0 1.465-1.17 2.199-2.198 2.199h-5.86c-1.345 0-2.2-1.02-2.2-2.377l.002-5.686c0-1.355.853-2.199 2.198-2.199h5.86zM9.059 1c1.354 0 2.198.855 2.197 2.199v5.864c0 1.346-.843 2.199-2.198 2.199h-5.86C1.844 11.262 1 10.415 1 9.063V3.199C1 1.853 1.843 1 3.198 1z" fill-rule="nonzero"/></svg>