<svg width="36" height="36" viewBox="0 0 36 36" xmlns="http://www.w3.org/2000/svg"><path d="M10 0h16c5.523 0 10 4.477 10 10v16c0 5.523-4.477 10-10 10H10C4.477 36 0 31.523 0 26V10C0 4.477 4.477 0 10 0zm1.763 8.571v4.715h12.523V8.57h1.571A3.143 3.143 0 0 1 29 11.714v14.143A3.143 3.143 0 0 1 25.857 29H10.143A3.143 3.143 0 0 1 7 25.857V11.714a3.143 3.143 0 0 1 3.143-3.143h1.62zm1.525 12.572h-1.571v1.571h1.571v-1.571zm10.998 0h-9.429v1.571h9.429v-1.571zm-10.998-4.714h-1.571V18h1.571v-1.571zm10.998 0h-9.429V18h9.429v-1.571zM21.143 7v1.571h1.571v3.143h-9.428V8.571h1.571V7h6.286z" fill="#FFF" fill-rule="evenodd"/></svg>
