<svg width="24" height="24" viewBox="0 0 24 24" xmlns="http://www.w3.org/2000/svg"><path d="M22.65 22.076l-2.543-2.565a5.501 5.501 0 1 0-4.595 2.49 5.477 5.477 0 0 0 3.037-.926l2.546 2.562a.815.815 0 0 0 1.15 0l.408-.41a.825.825 0 0 0 0-1.159l-.003.008zm-4.266-4.274a3.332 3.332 0 0 1-1.923 1.724 2.627 2.627 0 0 1-1.06.183 3.356 3.356 0 1 1 3.308-3.401c.008.52-.106 1.031-.33 1.497l.005-.003zm-10.006-.386h-2.59a.803.803 0 0 1-.78-.825.805.805 0 0 1 .78-.763h2.549c.064-.73.25-1.446.547-2.117H5.791a.803.803 0 0 1-.78-.825.805.805 0 0 1 .78-.763h4.075a6.927 6.927 0 0 1 3.034-2.117H5.791a.801.801 0 0 1-.81-.795c0-.438.363-.793.81-.793h12.42c.448 0 .814.355.811.795a.802.802 0 0 1-.81.793h-.61c2.198.783 3.85 2.592 4.398 4.818V3.41c.003-1.323-1.092-2.401-2.446-2.409H4.444C3.09 1.01 2 2.083 2 3.407v17.186c0 1.324 1.092 2.4 2.446 2.407h8.861c-2.617-.758-4.543-2.94-4.93-5.584zM4.952 3.974h12.934a.847.847 0 0 1 0 1.691H4.952a.847.847 0 0 1 0-1.691z" fill-rule="nonzero"/></svg>