<svg width="24" height="24" viewBox="0 0 24 24" xmlns="http://www.w3.org/2000/svg"><path d="M3.176 3.444h15.295c.65 0 1.176.548 1.176 1.223v17.11c0 .676-.527 1.223-1.176 1.223H3.176C2.526 23 2 22.453 2 21.778V4.667c0-.675.527-1.223 1.176-1.223zm2.353 11v4.89h1.177v-4.89H5.529zm4.706 1.223v3.666h1.177v-3.666h-1.177zM14.941 12v7.333h1.177V12H14.94zm-4.097.22l5.75-3.544-.6-1.052-4.955 3.056-2.606-2.77-3.582 2.482.651 1.016 2.77-1.918 2.572 2.731v-.001zm9.98 8.336V3.444c0-.675-.527-1.222-1.177-1.222H4.353V1h15.294a2.31 2.31 0 0 1 1.664.716c.441.458.689 1.08.689 1.728v17.112h-1.176z"  fill-rule="nonzero"/></svg>