<svg width="18" height="17" viewBox="0 0 18 17" xmlns="http://www.w3.org/2000/svg"><g fill-rule="nonzero"><path d="M11.326 15.924c-.312-.257-.343-.642-.343-.642l-.118-.83h-3.73l-.118.83s-.031.38-.343.64c-.312.257-.556.477-.312.51.235.036 2.473.004 2.64 0 .168.004 2.4.036 2.64 0 .24-.037-.004-.257-.316-.51v.002zM17.276.449c.398 0 .724.361.724.8v11.602c0 .444-.321.801-.719.801H.72c-.398 0-.719-.362-.719-.801V1.25C0 .805.321.448.719.448zm-12.51 7.52H3.91c-.102 0-.2.04-.272.114a.392.392 0 0 0-.112.275v.866c0 .103.04.202.112.275.072.073.17.114.272.114h.86c.101 0 .199-.041.271-.114a.391.391 0 0 0 .113-.275H5.15v-.866a.392.392 0 0 0-.113-.275.382.382 0 0 0-.271-.114zm9.314 0H7.144c-.102 0-.2.04-.272.114a.392.392 0 0 0-.112.275v.866c0 .103.04.202.112.275.072.073.17.114.272.114h6.94c.102 0 .2-.041.272-.114a.392.392 0 0 0 .113-.275h-.005v-.866a.392.392 0 0 0-.112-.275.382.382 0 0 0-.272-.114zm.004-4.14h-.855c-.101 0-.2.04-.271.113a.392.392 0 0 0-.113.276v.865c0 .104.04.203.113.276.072.073.17.114.272.114h.854c.102 0 .2-.041.272-.114a.391.391 0 0 0 .113-.276v-.865a.392.392 0 0 0-.113-.276.382.382 0 0 0-.272-.114zm-3.233-.005h-6.94c-.102 0-.2.04-.272.114a.392.392 0 0 0-.112.275v.866c0 .103.04.202.112.275.072.073.17.114.272.114h6.94c.102 0 .2-.04.272-.114a.392.392 0 0 0 .113-.275v-.866a.392.392 0 0 0-.113-.275.382.382 0 0 0-.272-.114z"/></g></svg>
